<?xml version="1.0"?>
<svg width="61.134427" height="15.890297999999998" xmlns="http://www.w3.org/2000/svg" xmlns:svg="http://www.w3.org/2000/svg" version="1.1">

 <metadata id="metadata6035">image/svg+xml</metadata>
 <g class="layer">
  <title>Layer 1</title>
  <g id="layer1">
   <g id="g22" transform="matrix(0.103828 0 0 -0.103828 158.602 281.218)">
    <path d="m-1416.25,2698.08c-22.67,4.83 -45.04,-4.13 -58.46,-21.2c0,0 8.35,3.01 21.82,1.28c-1.74,-0.03 -6.11,-0.84 -16.66,-5.46l6.54,-6.02c3.08,7.02 7.14,9.72 9.44,10.73c0.97,0.2 2,0.37 3.14,0.49c-4.63,-5.55 -6.85,-14.05 -5.45,-16.01c0.55,-0.77 1.45,-1.02 2.61,-0.93c2.5,0.19 6.17,2 9.94,3.67c4,1.77 10.38,-1.19 9.4,7.52c-0.19,1.72 -0.53,3.28 -1,4.66c-0.96,2.82 -2.49,4.82 -4.5,5.68c3.04,-0.08 5.28,-2.36 6.56,-6.04c5.71,-1.02 10.91,-2.21 15.51,-3.87c0.44,-0.18 1.34,-0.54 2.41,-0.98c0.38,-0.15 0.78,-0.32 1.18,-0.49c1.76,-0.74 3.65,-1.58 4.59,-2.14c2.03,-1.21 5.1,-3.37 5.1,-3.37c0,0 7.67,4.42 -0.57,15.21c-0.06,0.08 -0.11,0.14 -0.17,0.21c0.74,-0.47 1.49,-1.17 2.28,-2.21c8.24,-10.8 -0.19,-15.78 -0.19,-15.78c0,0 -0.11,0.11 -0.29,0.27c1.12,-1.31 2.14,-2.75 3.03,-4.36c6.91,-12.37 5.53,-17.07 5.33,-22.58l0,-0.01c-0.41,4.4 -0.49,8.22 -1.83,6.64c-1.35,-1.58 -1.35,-4.29 -0.56,-8.52c0.87,0.03 1.76,-1.27 2.02,-3.01c0.22,-1.44 -0.07,-2.71 -0.64,-3.24c1.05,-4.43 1.48,-5.48 2.63,-5.73c0.03,0 0.05,0.01 0.08,0.01c1.23,-4.7 2.66,-7.86 2.66,-7.86c0,0 0.03,-0.04 0.08,-0.12c-0.24,0.13 -0.69,0.06 -1.47,-0.38c-2.77,-1.56 -2.9,-0.84 -5.63,0c-2.73,0.84 -5.74,1.56 -6.13,-0.5c-0.61,-3.21 2.85,-3.18 4.88,-4.38c2.02,-1.21 -1.24,-3.6 -1.24,-3.6l-4.38,-1.9c-4.37,-1.9 -10.44,3.5 -10.44,3.5c0,0 0.54,-2.17 4.37,-5.04c3.83,-2.88 11.03,1 11.03,1c0,0 1.36,-1.02 2.55,-0.55c0.72,0.28 2.15,1.09 2.15,1.09c0,0 -1.99,0.42 -2.39,0.51c-0.39,0.08 1.39,3.82 1.39,3.82c0,0 1.49,0.59 3.52,2.73c1.03,1.09 1.8,2.32 1.96,3.08c0.17,-1.22 -0.2,-4.14 -4.48,-10.14c-8.77,-12.3 -19.64,-6.84 -22.1,-4.9c0,0 2.48,-6.96 2.03,-15.42c21.25,5.19 38.76,22.07 43.62,44.9c6.76,31.76 -13.51,62.98 -45.27,69.74" fill="#110f0d" fill-rule="nonzero" id="path24"/>
   </g>
   <g id="g26" transform="matrix(0.103828 0 0 -0.103828 158.697 288.447)">
    <path d="m-1416.25,2698.08c-1.37,0.29 -2.17,1.97 -1.79,3.75c0.38,1.78 1.8,2.99 3.16,2.69c1.38,-0.29 2.18,-1.96 1.8,-3.74c-0.38,-1.78 -1.8,-2.99 -3.17,-2.7m6.1,7.27c-1.96,6.85 -11.11,6.07 -12.9,0.94c-2.77,-7.9 -1.63,-13.1 0.04,-15.44c2.88,-4.07 7,-2.53 8.54,0.49c1.54,3.02 6.28,7.15 4.32,14.01" fill="#110f0d" fill-rule="nonzero" id="path28"/>
   </g>
   <g id="g30" transform="matrix(0.103828 0 0 -0.103828 154.093 287.933)">
    <path d="m-1416.25,2698.08c5.64,3.02 22.92,6.03 22.92,6.03c-19.77,21.99 -65.49,55.87 -90.79,69.08c0,0 34.8,-33.15 50.38,-54.97c-19.3,-3.85 -29.75,-7.76 -29.75,-7.76c19.28,-14.49 42.24,-35.44 59.52,-53.35c12.96,-13.44 32.17,-36.97 32.17,-36.97c-2.15,5.98 -5.51,15.61 -10.28,25.72c2.05,0.05 2.92,0.23 5.74,0.63c1.14,4.68 1.3,12.83 1.2,16.22l1.5,1.23c0,0 -5.67,-0.19 -11.53,2.03c-0.48,0.18 -1.42,-0.63 -4.24,-0.07c1.31,-3 3.74,-11.98 4.37,-14.34c-7.15,12.93 -22.14,34.91 -31.21,46.52" fill="#110f0d" fill-rule="nonzero" id="path32"/>
   </g>
  </g>
 </g>
</svg>